<?xml version="1.0"?>
<svg version="1.1" xmlns="http://www.w3.org/2000/svg" width="125px" height="36px" style=""><path fill="#" d="M8.91,33.6l0-2.21l1.95-0.78l0-12.272l-1.95-0.78l0-2.158l7.93-0.13l0,2.288l-1.95,0.78l0,4.472l1.768,0l4.342-7.41l4.81-0.13l0,2.288l-2.47,0.728l-3.406,5.668l4.836,6.656l1.95,0.78l0,2.21l-7.93,0l0-2.21l1.56-0.78l-3.562-4.94l-1.898,0l0,4.94l1.95,0.78l0,2.21l-7.93,0z M35.02726,13.45l0,7.618c0.754-0.624,2.444-1.768,4.368-1.768c2.652,0,4.082,1.768,4.082,4.68l0,6.89l1.82,0.65l0,2.08l-7.072,0l0-2.08l1.352-0.624l0-6.292c0-1.3-0.52-2.08-1.716-2.08c-1.456,0-2.834,1.378-2.834,1.378l0,6.968l1.378,0.65l0,2.08l-7.358,0l0-2.08l2.08-0.65l0-14.612l-2.08-0.52l0-2.08z M48.14452,21.77l0-2.08l5.98-0.13l0,8.97c0,1.43,0.416,2.08,1.586,2.08c1.69,0,2.938-1.404,2.938-1.404l0-6.786l-2.08-0.65l0-2.08l5.98-0.13l0,11.31l2.08,0.52l0,2.028l-5.486,0.182l-0.26-1.82s-2.08,2.08-4.55,2.08c-2.6,0-4.108-1.742-4.108-4.654l0-6.786z M73.32578,19.56l0.234,1.794s1.872-2.054,3.614-2.054c1.43,0,2.418,0.468,2.418,0.468l-0.208,4.992l-2.34,0l-0.39-2.21c-1.508,0-2.808,1.456-2.808,1.456l0,6.864l2.6,0.65l0,2.08l-8.58,0l0-2.08l2.08-0.65l0-8.45l-2.08-0.65l0-2.08z M91.30504,33.6l-0.468-1.69s-2.002,1.95-4.212,1.95c-2.522,0-4.056-1.482-4.056-4.082c0-3.068,2.314-4.29,6.266-4.29l1.82,0l0-1.43c0-1.326-0.702-1.898-2.002-1.898c-1.326,0-2.288,0.39-2.288,0.39l-0.39,1.638l-2.34,0l-0.182-3.848s3.146-1.04,5.642-1.04c3.952,0,5.46,1.378,5.46,5.148l0,6.422l1.95,0.468l0,2.08z M90.65504,27.698l-1.482,0c-2.028,0-2.834,0.52-2.834,1.69c0,0.988,0.546,1.56,1.534,1.56c1.378,0,2.782-1.508,2.782-1.508l0-1.742z M124.1303,31.52l0,2.08l-7.046,0l0-2.08l1.378-0.65l0-6.188c0-1.43-0.416-2.132-1.508-2.132c-1.69,0-2.886,1.352-2.886,1.352l0,6.968l1.352,0.65l0,2.08l-6.604,0l0-2.08l1.352-0.65l0-6.188c0-1.43-0.364-2.132-1.482-2.132c-1.69,0-2.912,1.352-2.912,1.352l0,6.968l1.378,0.65l0,2.08l-7.28,0l0-2.08l2.002-0.65l0-8.45l-1.976-0.65l0-2.08l5.434-0.13l0.182,1.846s2.262-2.106,4.55-2.106c1.846,0,2.99,0.858,3.588,2.236c0.442-0.442,2.392-2.236,4.706-2.236c2.73,0,4.004,1.768,4.004,4.68l0,6.89z"/><path fill="#" d=""/></svg>
